# xmcd
#
# Track frame offsets:
#	150
#	12873
#	32946
#	47394
#
# Disc length: 889 seconds
#
# Revision: 0
# Processed by: cddbd v1.5.2PL0 Copyright (c) Steve Scherf et al.
# Submitted via: audiograbber 1.83.01
#
DISCID=25037704
DTITLE=Marca - It's Different This Time Around
DYEAR=2007
DGENRE=Rock
TTITLE0=Kauai
TTITLE1=AB Conversation
TTITLE2=The Last of What Feels Like Hope
TTITLE3=Way of Life
EXTD=
EXTT0=
EXTT1=
EXTT2=
EXTT3=
PLAYORDER=
